# Made in Blockbench 4.8.3
mtllib plane.mtl

o cuboid
v 0.5 0.5 0.5
v 0.5 0.5 0.375
v 0.5 0.4375 0.5
v 0.5 0.4375 0.375
v -0.5 0.5 0.5
v -0.5 0.5 0.375
v -0.5 0.4375 0.5
v -0.5 0.4375 0.375
v 0 0.5 -1
v 0 0.4375 -1
v 0 0.3125 0.5
v 0 0.375 0.5
v 0.0625 0.4375 -0.8125
v 0.0625 0.5 -0.8125
v 0.0625 0.5 0.5
v 0.0625 0.4375 0.5
v -0.0625 0.5 -0.8125
v -0.0625 0.4375 -0.8125
v -0.0625 0.4375 0.5
v -0.0625 0.5 0.5
vt 1 1
vt 0 1
vt 0 0.5
vt 1 0.5
vt 1 0.5
vt 1 1
vt 0 1
vt 0 0.5
vt 0.5 0
vt 0.75 0
vt 0.75 1
vt 0.5 1
vt 0.5 0
vt 0.75 0
vt 0.75 1
vt 0.5 1
vt 0.5 0.5
vt 0.75 0.5
vt 0.75 1
vt 0.5 1
vt 0.5 1
vt 0.25 1
vt 0.25 0.5
vt 0.5 0.5
vt 0.5 0.5
vt 0.75 0.5
vt 0.75 1
vt 0.5 1
vt 0.5 1
vt 0.25 1
vt 0.25 0
vt 0.5 0
vt 0.5 1
vt 0.25 1
vt 0.25 0.5
vt 0.5 0.5
vt 0.5 1
vt 0.25 1
vt 0.25 0
vt 0.5 0
vt 0 0.5
vt 0.25 0.5
vt 0.25 1
vt 0 1
vt 1 1
vt 0.75 1
vt 0.75 0
vt 1 0
vt 1 1
vt 0.75 1
vt 0.75 0.5
vt 1 0.5
vt 1 1
vt 0.75 1
vt 0.75 0
vt 1 0
vt 1 1
vt 0.75 1
vt 0.75 0.5
vt 1 0.5
vt 0 0
vt 0.25 0
vt 0.25 1
vt 0 1
vt 0 0.5
vt 0.25 0.5
vt 0.25 1
vt 0 1
vt 0 0
vt 0.25 0
vt 0.25 1
vt 0 1
vn 1 0 0
vn -1 0 0
vn -0.8944271909999161 0.44721359549995804 0
vn 0 -1 0
vn 0 0 1
vn 0.948683298050514 0 -0.316227766016838
vn -0.948683298050514 0 -0.316227766016838
vn -0.8944271909999161 -0.44721359549995804 0
vn 0 0 1
vn 0 1 0
vn 0.9383431168171101 0 -0.34570535882735637
vn 0 1 0
vn 0 0 1
vn 0 -1 0
vn -0.9383431168171101 0 -0.34570535882735637
vn 0 -1 0
vn 0 0 1
vn 0 1 0
usemtl none
f 2/1/1 1/2/1 3/3/1 4/4/1
f 7/5/2 5/6/2 6/7/2 8/8/2
f 12/9/3 15/10/3 14/11/3 9/12/3
f 10/13/4 13/14/4 16/15/4 11/16/4
f 11/17/5 16/18/5 15/19/5 12/20/5
f 9/21/6 14/22/6 13/23/6 10/24/6
f 10/25/7 18/26/7 17/27/7 9/28/7
f 11/29/8 19/30/8 18/31/8 10/32/8
f 12/33/9 20/34/9 19/35/9 11/36/9
f 9/37/10 17/38/10 20/39/10 12/40/10
f 4/41/11 13/42/11 14/43/11 2/44/11
f 2/45/12 14/46/12 15/47/12 1/48/12
f 1/49/13 15/50/13 16/51/13 3/52/13
f 3/53/14 16/54/14 13/55/14 4/56/14
f 6/57/15 17/58/15 18/59/15 8/60/15
f 8/61/16 18/62/16 19/63/16 7/64/16
f 7/65/17 19/66/17 20/67/17 5/68/17
f 5/69/18 20/70/18 17/71/18 6/72/18